<?xml version="1.0" encoding="utf-8"?>
<!-- Generator: Adobe Illustrator 25.1.0, SVG Export Plug-In . SVG Version: 6.00 Build 0)  -->
<svg version="1.1" id="Layer_1" xmlns="http://www.w3.org/2000/svg" xmlns:xlink="http://www.w3.org/1999/xlink" x="0px" y="0px"
	 viewBox="0 0 234 153" style="enable-background:new 0 0 234 153;" xml:space="preserve">
<style type="text/css">
	.st0{enable-background:new    ;}
	.st1{fill:#4E8BFE;}
	.st2{fill:#2A2585;}
	.st3{fill:#FFFFFF;}
</style>
<g class="st0">
	<path class="st1" d="M26.1,119.6c-0.8,0.6-1.6,1.1-2.5,1.6c-0.9,0.4-1.9,0.8-3,1c-1.1,0.2-2.3,0.3-3.7,0.3c-2.1,0-4-0.4-5.7-1.1
		c-1.8-0.7-3.3-1.8-4.6-3.1c-1.3-1.3-2.3-2.8-3-4.6c-0.7-1.8-1.1-3.6-1.1-5.6V108c0-2,0.4-3.9,1.1-5.6c0.7-1.7,1.7-3.3,3-4.6
		c1.3-1.3,2.8-2.4,4.6-3.1s3.8-1.1,5.9-1.1c1.3,0,2.5,0.1,3.6,0.3c1.1,0.2,2.1,0.5,2.9,0.9c0.9,0.4,1.7,0.8,2.4,1.4
		c0.7,0.5,1.4,1.1,2.1,1.8l-3.9,4.5c-1.1-1-2.2-1.8-3.3-2.3c-1.1-0.6-2.4-0.8-3.8-0.8c-1.2,0-2.3,0.2-3.3,0.7
		c-1,0.5-1.9,1.1-2.6,1.9c-0.7,0.8-1.3,1.7-1.7,2.8c-0.4,1.1-0.6,2.2-0.6,3.4v0.1c0,1.2,0.2,2.3,0.6,3.4c0.4,1.1,1,2,1.7,2.8
		s1.6,1.4,2.6,1.9c1,0.5,2.1,0.7,3.3,0.7c1.6,0,3-0.3,4.1-0.9c1.1-0.6,2.2-1.4,3.3-2.4l3.9,4C27.6,118.3,26.9,118.9,26.1,119.6z"/>
	<path class="st1" d="M58.7,113.6c-0.7,1.7-1.8,3.3-3.1,4.6c-1.3,1.3-2.9,2.4-4.7,3.1c-1.8,0.8-3.8,1.1-6,1.1s-4.1-0.4-6-1.1
		c-1.8-0.8-3.4-1.8-4.7-3.1c-1.3-1.3-2.3-2.8-3.1-4.6c-0.7-1.7-1.1-3.6-1.1-5.6V108c0-2,0.4-3.9,1.1-5.6c0.7-1.7,1.8-3.3,3.1-4.6
		c1.3-1.3,2.9-2.4,4.7-3.1c1.8-0.8,3.8-1.1,6-1.1s4.1,0.4,6,1.1c1.8,0.8,3.4,1.8,4.7,3.1c1.3,1.3,2.3,2.8,3.1,4.6
		c0.7,1.7,1.1,3.6,1.1,5.6v0.1C59.8,110,59.4,111.9,58.7,113.6z M53.3,108c0-1.2-0.2-2.3-0.6-3.4c-0.4-1.1-1-2-1.8-2.8
		c-0.8-0.8-1.7-1.4-2.7-1.9s-2.2-0.7-3.4-0.7c-1.3,0-2.4,0.2-3.4,0.7c-1,0.5-1.9,1.1-2.6,1.9c-0.7,0.8-1.3,1.7-1.7,2.8
		c-0.4,1.1-0.6,2.2-0.6,3.4v0.1c0,1.2,0.2,2.3,0.6,3.4c0.4,1.1,1,2,1.8,2.8c0.8,0.8,1.7,1.4,2.7,1.9c1,0.5,2.2,0.7,3.4,0.7
		c1.2,0,2.4-0.2,3.4-0.7c1-0.5,1.9-1.1,2.7-1.9c0.7-0.8,1.3-1.7,1.7-2.8C53.1,110.4,53.3,109.3,53.3,108L53.3,108z"/>
	<path class="st1" d="M77.6,122.2h-5.4L60.9,94h6.8l7.3,19.7L82.3,94h6.6L77.6,122.2z"/>
	<path class="st1" d="M91.5,122V94h6.2v28H91.5z"/>
	<path class="st1" d="M127.4,113.5c-0.7,1.7-1.7,3.2-3.1,4.4c-1.3,1.3-2.9,2.2-4.7,3c-1.8,0.7-3.8,1.1-6,1.1h-10.9V94h10.9
		c2.2,0,4.2,0.4,6,1.1c1.8,0.7,3.4,1.7,4.7,2.9c1.3,1.3,2.3,2.7,3.1,4.4c0.7,1.7,1.1,3.5,1.1,5.5v0.1
		C128.5,110,128.1,111.8,127.4,113.5z M122.1,108c0-1.2-0.2-2.4-0.6-3.4c-0.4-1-1-1.9-1.7-2.7c-0.7-0.7-1.6-1.3-2.7-1.7
		c-1-0.4-2.2-0.6-3.4-0.6h-4.8v16.9h4.8c1.3,0,2.4-0.2,3.4-0.6c1-0.4,1.9-1,2.7-1.7c0.7-0.7,1.3-1.6,1.7-2.6
		C121.9,110.5,122.1,109.3,122.1,108L122.1,108z"/>
</g>
<g class="st0">
	<path class="st2" d="M168.7,122.2h-5.4l-6.3-18.3l-6.3,18.3h-5.4L135.8,94h6.6l5.8,19l6.3-19h5.3l6.3,19l5.8-19h6.4L168.7,122.2z"
		/>
	<path class="st2" d="M201.7,122l-2.6-6.3h-11.8l-2.6,6.3h-6.3l12-28.2h5.7l12,28.2H201.7z M193.2,101.2l-3.7,9.1h7.4L193.2,101.2z"
		/>
	<path class="st2" d="M227.5,122l-6-9h-4.8v9h-6.2V94h12.8c3.3,0,5.9,0.8,7.8,2.4c1.9,1.6,2.8,3.9,2.8,6.8v0.1
		c0,2.3-0.6,4.1-1.7,5.5s-2.6,2.5-4.3,3.1l6.8,10H227.5z M227.6,103.6c0-1.3-0.4-2.3-1.3-3c-0.9-0.7-2-1-3.6-1h-6.1v8h6.2
		c1.5,0,2.7-0.4,3.5-1.1C227.2,105.8,227.6,104.8,227.6,103.6L227.6,103.6z"/>
</g>
<g>
	<path id="XMLID_1028_" class="st1" d="M86.5,59.9c-5.9-13.7-4.2-36.2,12.3-47.2c12.6-8.6,29.6-7.2,40.6,3.5c-3,1.8-6.4,2.9-9.9,3.3
		c-15.7,2.1-25.4,14.8-28.7,23.5c0,0,2.3,2.2,7.9-5.4c4.4-5.9,11.1-8.5,16.7-9.7c-0.9,1.3-2.5,3.4-4.1,5.5c-2.6,3.3-1.4,6.1-3,7.7
		c0,0,2.6,1.7,4.7-2s3.6-6,8.9-7.4c5.8-1.8,10.4-6.1,12.6-11.8c0.5-1.5,0.9-3,1.1-4.5c-13-15.8-36.3-18-52.1-5
		C78.7,22.6,75.6,44.1,86.5,59.9L86.5,59.9z"/>
	<path id="XMLID_1029_" class="st2" d="M147.6,18.2L147.6,18.2c5.7,13.7,4,36-12.4,47.1c-12.6,8.7-29.6,7.2-40.6-3.5
		c3-1.8,6.4-3,9.9-3.3c15.7-2.1,25.4-14.8,28.7-23.5c0,0-2.3-2.2-7.9,5.4c-4.4,5.9-11.1,8.5-16.7,9.7c0.9-1.3,2.5-3.4,4.1-5.5
		c2.6-3.3,1.4-6.1,3-7.7c0,0-2.6-1.7-4.7,2s-3.6,6-8.9,7.4C96.3,48,91.7,52.4,89.5,58c-0.5,1.5-0.8,3-1,4.5c13,15.8,36.3,18,52.1,5
		C155.3,55.4,158.4,34,147.6,18.2z"/>
</g>
<path id="Rectangle_4310" class="st1" d="M5,133h224c2.2,0,4,1.8,4,4v11c0,2.2-1.8,4-4,4H5c-2.2,0-4-1.8-4-4v-11
	C1,134.8,2.8,133,5,133z"/>
<g class="st0">
	<path class="st3" d="M12.3,146.8c0,0.1,0,0.2,0,0.2c0,0.1,0,0.1,0,0.2s0,0.1-0.1,0.1c0,0-0.1,0-0.1,0H8.2c-0.1,0-0.2,0-0.3-0.1
		c-0.1-0.1-0.1-0.2-0.1-0.4v-8c0,0,0-0.1,0-0.1c0,0,0,0,0.1-0.1c0,0,0.1,0,0.2,0c0.1,0,0.2,0,0.3,0c0.1,0,0.2,0,0.3,0
		c0.1,0,0.1,0,0.2,0c0,0,0.1,0,0.1,0.1s0,0.1,0,0.1v7.4H12c0,0,0.1,0,0.1,0c0,0,0.1,0,0.1,0.1c0,0,0,0.1,0,0.1
		C12.3,146.7,12.3,146.7,12.3,146.8z"/>
	<path class="st3" d="M19.5,146.8c0,0.1,0,0.1,0,0.2s0,0.1,0,0.1c0,0,0,0.1-0.1,0.1s-0.1,0-0.1,0h-4.1c-0.1,0-0.2,0-0.3-0.1
		c-0.1-0.1-0.1-0.2-0.1-0.4v-7.7c0-0.2,0-0.3,0.1-0.4c0.1-0.1,0.2-0.1,0.3-0.1h4.1c0,0,0.1,0,0.1,0c0,0,0.1,0,0.1,0.1
		c0,0,0,0.1,0,0.1c0,0.1,0,0.1,0,0.2c0,0.1,0,0.2,0,0.2s0,0.1,0,0.1c0,0,0,0.1-0.1,0.1c0,0-0.1,0-0.1,0h-3.4v2.7h2.9
		c0,0,0.1,0,0.1,0s0.1,0,0.1,0.1c0,0,0,0.1,0,0.1c0,0.1,0,0.1,0,0.2c0,0.1,0,0.1,0,0.2c0,0.1,0,0.1,0,0.1c0,0,0,0.1-0.1,0.1
		s-0.1,0-0.1,0h-2.9v3.1h3.4c0,0,0.1,0,0.1,0c0,0,0.1,0,0.1,0.1c0,0,0,0.1,0,0.1C19.5,146.7,19.5,146.8,19.5,146.8z"/>
	<path class="st3" d="M27.8,139.2c0,0.1,0,0.2,0,0.2c0,0.1,0,0.1,0,0.1c0,0,0,0.1-0.1,0.1s-0.1,0-0.1,0h-2.4v7.5c0,0,0,0.1,0,0.1
		c0,0,0,0-0.1,0.1s-0.1,0-0.2,0c-0.1,0-0.2,0-0.3,0c-0.1,0-0.2,0-0.3,0c-0.1,0-0.1,0-0.2,0s-0.1,0-0.1-0.1c0,0,0-0.1,0-0.1v-7.5
		h-2.4c0,0-0.1,0-0.1,0s-0.1,0-0.1-0.1c0,0,0-0.1,0-0.1c0-0.1,0-0.1,0-0.2s0-0.2,0-0.2c0-0.1,0-0.1,0-0.2c0,0,0-0.1,0.1-0.1
		c0,0,0.1,0,0.1,0h6c0,0,0.1,0,0.1,0c0,0,0.1,0,0.1,0.1c0,0,0,0.1,0,0.2S27.8,139.1,27.8,139.2z"/>
	<path class="st3" d="M34.8,144.9c0,0.4-0.1,0.8-0.2,1.1c-0.1,0.3-0.4,0.6-0.6,0.8s-0.6,0.4-0.9,0.5c-0.4,0.1-0.7,0.2-1.2,0.2
		c-0.3,0-0.6,0-0.8-0.1s-0.5-0.1-0.7-0.2c-0.2-0.1-0.4-0.1-0.5-0.2c-0.1-0.1-0.2-0.1-0.3-0.2c-0.1-0.1-0.1-0.1-0.1-0.2s0-0.2,0-0.3
		c0-0.1,0-0.2,0-0.2s0-0.1,0-0.2c0,0,0-0.1,0.1-0.1s0.1,0,0.1,0c0.1,0,0.1,0,0.3,0.1c0.1,0.1,0.3,0.2,0.4,0.2
		c0.2,0.1,0.4,0.2,0.6,0.2c0.3,0.1,0.5,0.1,0.9,0.1c0.2,0,0.5,0,0.7-0.1c0.2-0.1,0.4-0.2,0.5-0.3s0.3-0.3,0.3-0.4
		c0.1-0.2,0.1-0.4,0.1-0.6c0-0.2-0.1-0.5-0.2-0.6s-0.3-0.3-0.4-0.5s-0.4-0.3-0.6-0.4c-0.2-0.1-0.5-0.2-0.7-0.3s-0.5-0.2-0.7-0.4
		c-0.2-0.1-0.4-0.3-0.6-0.5c-0.2-0.2-0.3-0.4-0.4-0.7c-0.1-0.3-0.2-0.6-0.2-0.9c0-0.4,0.1-0.7,0.2-1c0.1-0.3,0.3-0.5,0.5-0.7
		s0.5-0.3,0.8-0.4s0.7-0.1,1-0.1c0.2,0,0.4,0,0.6,0s0.4,0.1,0.5,0.1c0.2,0.1,0.3,0.1,0.5,0.2c0.1,0.1,0.2,0.1,0.3,0.2
		c0,0,0.1,0.1,0.1,0.1s0,0.1,0,0.1c0,0,0,0.1,0,0.1c0,0.1,0,0.1,0,0.2c0,0.1,0,0.2,0,0.2c0,0.1,0,0.1,0,0.2s0,0.1-0.1,0.1
		c0,0-0.1,0-0.1,0c0,0-0.1,0-0.2-0.1c-0.1-0.1-0.2-0.1-0.4-0.2c-0.2-0.1-0.3-0.1-0.5-0.2c-0.2-0.1-0.4-0.1-0.7-0.1
		c-0.2,0-0.4,0-0.6,0.1c-0.2,0.1-0.3,0.2-0.4,0.3c-0.1,0.1-0.2,0.2-0.3,0.4c-0.1,0.1-0.1,0.3-0.1,0.5c0,0.2,0.1,0.4,0.2,0.6
		s0.3,0.3,0.4,0.5c0.2,0.1,0.4,0.3,0.6,0.4c0.2,0.1,0.5,0.2,0.7,0.3c0.2,0.1,0.5,0.2,0.7,0.4c0.2,0.1,0.4,0.3,0.6,0.5
		c0.2,0.2,0.3,0.4,0.4,0.7C34.7,144.3,34.8,144.6,34.8,144.9z"/>
	<path class="st3" d="M46.3,139.2c0,0.1,0,0.2,0,0.2c0,0.1,0,0.1,0,0.1c0,0,0,0.1-0.1,0.1s-0.1,0-0.1,0h-3.2v2.9h3c0,0,0.1,0,0.1,0
		s0.1,0,0.1,0.1c0,0,0,0.1,0,0.1s0,0.1,0,0.2c0,0.1,0,0.2,0,0.2s0,0.1,0,0.1c0,0,0,0.1-0.1,0.1c0,0-0.1,0-0.1,0h-3v3.6
		c0,0,0,0.1,0,0.1c0,0,0,0.1-0.1,0.1c0,0-0.1,0-0.2,0c-0.1,0-0.2,0-0.3,0c-0.1,0-0.2,0-0.3,0c-0.1,0-0.1,0-0.2,0c0,0-0.1,0-0.1-0.1
		c0,0,0-0.1,0-0.1v-8c0-0.2,0-0.3,0.1-0.4c0.1-0.1,0.2-0.1,0.3-0.1H46c0,0,0.1,0,0.1,0c0,0,0.1,0,0.1,0.1c0,0,0,0.1,0,0.2
		S46.3,139.1,46.3,139.2z"/>
	<path class="st3" d="M50.3,147.1C50.3,147.2,50.3,147.2,50.3,147.1c0,0.1-0.1,0.1-0.1,0.2c0,0-0.1,0-0.2,0c-0.1,0-0.2,0-0.3,0
		c-0.1,0-0.2,0-0.3,0c-0.1,0-0.1,0-0.2,0c0,0-0.1,0-0.1-0.1c0,0,0-0.1,0-0.1v-8.3c0,0,0-0.1,0-0.1c0,0,0.1,0,0.1-0.1
		c0,0,0.1,0,0.2,0c0.1,0,0.2,0,0.3,0c0.1,0,0.2,0,0.3,0c0.1,0,0.1,0,0.2,0c0,0,0.1,0,0.1,0.1s0,0.1,0,0.1V147.1z"/>
	<path class="st3" d="M60.2,139.9c0,0.1,0,0.2,0,0.2c0,0.1,0,0.1,0,0.2c0,0,0,0.1-0.1,0.1c0,0-0.1,0-0.1,0c-0.1,0-0.1,0-0.3-0.1
		s-0.3-0.2-0.5-0.3c-0.2-0.1-0.5-0.2-0.7-0.3c-0.3-0.1-0.6-0.1-1-0.1c-0.5,0-0.9,0.1-1.3,0.3c-0.4,0.2-0.7,0.4-1,0.7
		c-0.3,0.3-0.5,0.7-0.6,1.1s-0.2,0.9-0.2,1.4c0,0.5,0.1,1,0.2,1.5s0.4,0.8,0.6,1.1c0.3,0.3,0.6,0.5,1,0.7c0.4,0.2,0.8,0.2,1.2,0.2
		c0.3,0,0.5,0,0.8-0.1c0.3-0.1,0.5-0.2,0.8-0.3v-2.5h-2c-0.1,0-0.1,0-0.2-0.1c0-0.1-0.1-0.2-0.1-0.4c0-0.1,0-0.2,0-0.2
		c0-0.1,0-0.1,0-0.1c0,0,0-0.1,0.1-0.1c0,0,0.1,0,0.1,0h2.7c0,0,0.1,0,0.1,0c0,0,0.1,0,0.1,0.1c0,0,0.1,0.1,0.1,0.1
		c0,0.1,0,0.1,0,0.2v3.3c0,0.1,0,0.2-0.1,0.3c0,0.1-0.1,0.2-0.3,0.2c-0.1,0.1-0.3,0.1-0.5,0.2c-0.2,0.1-0.4,0.1-0.6,0.2
		c-0.2,0.1-0.4,0.1-0.7,0.1c-0.2,0-0.4,0-0.7,0c-0.7,0-1.3-0.1-1.8-0.3s-1-0.5-1.3-0.9c-0.4-0.4-0.6-0.8-0.8-1.4
		c-0.2-0.5-0.3-1.1-0.3-1.8c0-0.7,0.1-1.3,0.3-1.9c0.2-0.6,0.5-1,0.9-1.4c0.4-0.4,0.8-0.7,1.4-0.9s1.1-0.3,1.7-0.3
		c0.3,0,0.6,0,0.9,0.1s0.5,0.1,0.8,0.2c0.2,0.1,0.4,0.2,0.6,0.3s0.3,0.2,0.3,0.2c0.1,0.1,0.1,0.1,0.1,0.2
		C60.1,139.6,60.2,139.7,60.2,139.9z"/>
	<path class="st3" d="M69.6,147.1C69.6,147.2,69.6,147.2,69.6,147.1c0,0.1-0.1,0.1-0.1,0.2s-0.1,0-0.2,0c-0.1,0-0.2,0-0.3,0
		c-0.1,0-0.2,0-0.3,0c-0.1,0-0.1,0-0.2,0c0,0-0.1,0-0.1-0.1c0,0,0-0.1,0-0.1v-3.8h-3.9v3.8c0,0,0,0.1,0,0.1c0,0,0,0-0.1,0.1
		c0,0-0.1,0-0.2,0c-0.1,0-0.2,0-0.3,0c-0.1,0-0.2,0-0.3,0c-0.1,0-0.1,0-0.2,0c0,0-0.1,0-0.1-0.1c0,0,0-0.1,0-0.1v-8.3
		c0,0,0-0.1,0-0.1c0,0,0,0,0.1-0.1c0,0,0.1,0,0.2,0c0.1,0,0.2,0,0.3,0c0.1,0,0.2,0,0.3,0c0.1,0,0.1,0,0.2,0c0,0,0.1,0,0.1,0.1
		s0,0.1,0,0.1v3.4h3.9v-3.4c0,0,0-0.1,0-0.1s0,0,0.1-0.1c0,0,0.1,0,0.2,0c0.1,0,0.2,0,0.3,0c0.1,0,0.2,0,0.3,0c0.1,0,0.1,0,0.2,0
		s0.1,0,0.1,0.1c0,0,0,0.1,0,0.1V147.1z"/>
	<path class="st3" d="M78.4,139.2c0,0.1,0,0.2,0,0.2c0,0.1,0,0.1,0,0.1c0,0,0,0.1-0.1,0.1s-0.1,0-0.1,0h-2.4v7.5c0,0,0,0.1,0,0.1
		c0,0,0,0-0.1,0.1s-0.1,0-0.2,0c-0.1,0-0.2,0-0.3,0c-0.1,0-0.2,0-0.3,0c-0.1,0-0.1,0-0.2,0s-0.1,0-0.1-0.1c0,0,0-0.1,0-0.1v-7.5
		h-2.4c0,0-0.1,0-0.1,0s-0.1,0-0.1-0.1c0,0,0-0.1,0-0.1c0-0.1,0-0.1,0-0.2s0-0.2,0-0.2c0-0.1,0-0.1,0-0.2c0,0,0-0.1,0.1-0.1
		c0,0,0.1,0,0.1,0h6c0,0,0.1,0,0.1,0c0,0,0.1,0,0.1,0.1c0,0,0,0.1,0,0.2S78.4,139.1,78.4,139.2z"/>
	<path class="st3" d="M90.4,139.2c0,0.1,0,0.2,0,0.2c0,0.1,0,0.1,0,0.1c0,0,0,0.1-0.1,0.1s-0.1,0-0.1,0h-2.4v7.5c0,0,0,0.1,0,0.1
		c0,0,0,0-0.1,0.1s-0.1,0-0.2,0c-0.1,0-0.2,0-0.3,0c-0.1,0-0.2,0-0.3,0c-0.1,0-0.1,0-0.2,0s-0.1,0-0.1-0.1c0,0,0-0.1,0-0.1v-7.5
		h-2.4c0,0-0.1,0-0.1,0s-0.1,0-0.1-0.1c0,0,0-0.1,0-0.1c0-0.1,0-0.1,0-0.2s0-0.2,0-0.2c0-0.1,0-0.1,0-0.2c0,0,0-0.1,0.1-0.1
		c0,0,0.1,0,0.1,0h6c0,0,0.1,0,0.1,0c0,0,0.1,0,0.1,0.1c0,0,0,0.1,0,0.2S90.4,139.1,90.4,139.2z"/>
	<path class="st3" d="M99,147.1C99,147.2,99,147.2,99,147.1c0,0.1-0.1,0.1-0.1,0.2s-0.1,0-0.2,0c-0.1,0-0.2,0-0.3,0
		c-0.1,0-0.2,0-0.3,0c-0.1,0-0.1,0-0.2,0c0,0-0.1,0-0.1-0.1c0,0,0-0.1,0-0.1v-3.8h-3.9v3.8c0,0,0,0.1,0,0.1c0,0,0,0-0.1,0.1
		c0,0-0.1,0-0.2,0c-0.1,0-0.2,0-0.3,0c-0.1,0-0.2,0-0.3,0c-0.1,0-0.1,0-0.2,0c0,0-0.1,0-0.1-0.1c0,0,0-0.1,0-0.1v-8.3
		c0,0,0-0.1,0-0.1c0,0,0,0,0.1-0.1c0,0,0.1,0,0.2,0c0.1,0,0.2,0,0.3,0c0.1,0,0.2,0,0.3,0c0.1,0,0.1,0,0.2,0c0,0,0.1,0,0.1,0.1
		s0,0.1,0,0.1v3.4h3.9v-3.4c0,0,0-0.1,0-0.1s0,0,0.1-0.1c0,0,0.1,0,0.2,0c0.1,0,0.2,0,0.3,0c0.1,0,0.2,0,0.3,0c0.1,0,0.1,0,0.2,0
		s0.1,0,0.1,0.1c0,0,0,0.1,0,0.1V147.1z"/>
	<path class="st3" d="M107.2,146.8c0,0.1,0,0.1,0,0.2s0,0.1,0,0.1c0,0,0,0.1-0.1,0.1s-0.1,0-0.1,0h-4.1c-0.1,0-0.2,0-0.3-0.1
		c-0.1-0.1-0.1-0.2-0.1-0.4v-7.7c0-0.2,0-0.3,0.1-0.4c0.1-0.1,0.2-0.1,0.3-0.1h4.1c0,0,0.1,0,0.1,0c0,0,0.1,0,0.1,0.1
		c0,0,0,0.1,0,0.1c0,0.1,0,0.1,0,0.2c0,0.1,0,0.2,0,0.2s0,0.1,0,0.1c0,0,0,0.1-0.1,0.1c0,0-0.1,0-0.1,0h-3.4v2.7h2.9
		c0,0,0.1,0,0.1,0s0.1,0,0.1,0.1c0,0,0,0.1,0,0.1c0,0.1,0,0.1,0,0.2c0,0.1,0,0.1,0,0.2c0,0.1,0,0.1,0,0.1c0,0,0,0.1-0.1,0.1
		s-0.1,0-0.1,0h-2.9v3.1h3.4c0,0,0.1,0,0.1,0c0,0,0.1,0,0.1,0.1c0,0,0,0.1,0,0.1C107.2,146.7,107.2,146.8,107.2,146.8z"/>
	<path class="st3" d="M120.1,146.1c0,0.1,0,0.1,0,0.2c0,0.1,0,0.1,0,0.1c0,0,0,0.1,0,0.1c0,0,0,0.1-0.1,0.1c0,0-0.1,0.1-0.3,0.2
		c-0.1,0.1-0.3,0.2-0.5,0.3c-0.2,0.1-0.5,0.2-0.7,0.2s-0.6,0.1-0.9,0.1c-0.6,0-1.1-0.1-1.5-0.3s-0.8-0.5-1.2-0.8s-0.6-0.8-0.7-1.3
		c-0.2-0.5-0.3-1.1-0.3-1.8c0-0.7,0.1-1.3,0.3-1.9s0.4-1,0.8-1.4c0.3-0.4,0.7-0.7,1.2-0.9c0.5-0.2,1-0.3,1.5-0.3
		c0.2,0,0.5,0,0.7,0.1c0.2,0,0.5,0.1,0.7,0.2c0.2,0.1,0.4,0.2,0.5,0.2c0.2,0.1,0.3,0.2,0.3,0.2c0.1,0.1,0.1,0.1,0.1,0.1
		c0,0,0,0.1,0,0.1s0,0.1,0,0.1c0,0.1,0,0.1,0,0.2c0,0.1,0,0.2,0,0.2c0,0.1,0,0.1,0,0.2s0,0.1-0.1,0.1c0,0-0.1,0-0.1,0
		c-0.1,0-0.2,0-0.3-0.1s-0.3-0.2-0.4-0.3c-0.2-0.1-0.4-0.2-0.6-0.3c-0.3-0.1-0.6-0.1-0.9-0.1c-0.4,0-0.7,0.1-1,0.2
		c-0.3,0.2-0.6,0.4-0.8,0.7c-0.2,0.3-0.4,0.7-0.5,1.1s-0.2,0.9-0.2,1.5c0,0.5,0.1,1,0.2,1.4s0.3,0.8,0.5,1.1
		c0.2,0.3,0.5,0.5,0.8,0.6c0.3,0.1,0.7,0.2,1.1,0.2c0.3,0,0.6,0,0.9-0.1c0.3-0.1,0.5-0.2,0.7-0.3c0.2-0.1,0.3-0.2,0.4-0.3
		c0.1-0.1,0.2-0.1,0.3-0.1c0,0,0.1,0,0.1,0c0,0,0,0,0.1,0.1c0,0,0,0.1,0,0.2C120.1,145.9,120.1,146,120.1,146.1z"/>
	<path class="st3" d="M129.9,142.9c0,0.7-0.1,1.3-0.2,1.9s-0.4,1-0.7,1.4c-0.3,0.4-0.7,0.7-1.2,0.9c-0.5,0.2-1.1,0.3-1.7,0.3
		c-0.6,0-1.2-0.1-1.7-0.3c-0.5-0.2-0.9-0.5-1.2-0.8s-0.5-0.8-0.7-1.4c-0.2-0.5-0.2-1.2-0.2-1.9c0-0.7,0.1-1.3,0.2-1.8
		c0.2-0.6,0.4-1,0.7-1.4c0.3-0.4,0.7-0.7,1.2-0.9c0.5-0.2,1.1-0.3,1.7-0.3c0.6,0,1.2,0.1,1.7,0.3c0.5,0.2,0.9,0.5,1.2,0.8
		c0.3,0.4,0.5,0.8,0.7,1.4C129.8,141.6,129.9,142.2,129.9,142.9z M128.6,143c0-0.5,0-0.9-0.1-1.4s-0.2-0.8-0.4-1.1
		c-0.2-0.3-0.5-0.5-0.8-0.7c-0.3-0.2-0.8-0.3-1.3-0.3c-0.5,0-0.9,0.1-1.2,0.3c-0.3,0.2-0.6,0.4-0.8,0.7c-0.2,0.3-0.4,0.7-0.5,1.1
		c-0.1,0.4-0.1,0.8-0.1,1.3c0,0.5,0,1,0.1,1.4c0.1,0.4,0.2,0.8,0.4,1.1c0.2,0.3,0.5,0.5,0.8,0.7c0.3,0.2,0.8,0.3,1.3,0.3
		c0.5,0,0.9-0.1,1.3-0.3c0.3-0.2,0.6-0.4,0.8-0.8c0.2-0.3,0.4-0.7,0.4-1.1C128.6,143.9,128.6,143.5,128.6,143z"/>
	<path class="st3" d="M136.1,147.1c0,0,0,0.1-0.1,0.1c0,0-0.1,0.1-0.1,0.1s-0.1,0-0.2,0c-0.1,0-0.2,0-0.3,0c-0.1,0-0.2,0-0.3,0
		c-0.1,0-0.1,0-0.2,0s-0.1,0-0.1,0s-0.1,0-0.1,0c0,0,0,0-0.1-0.1s0-0.1,0-0.1l-2.8-8c0-0.1-0.1-0.2-0.1-0.2s0-0.1,0.1-0.1
		c0,0,0.1-0.1,0.2-0.1c0.1,0,0.2,0,0.4,0c0.1,0,0.2,0,0.3,0c0.1,0,0.1,0,0.2,0s0.1,0,0.1,0.1c0,0,0,0.1,0.1,0.1l2.5,7.2h0l2.4-7.2
		c0,0,0-0.1,0-0.1s0-0.1,0.1-0.1s0.1,0,0.2,0c0.1,0,0.2,0,0.3,0c0.1,0,0.2,0,0.3,0c0.1,0,0.1,0,0.2,0.1s0,0.1,0,0.1
		c0,0.1,0,0.1-0.1,0.2L136.1,147.1z"/>
	<path class="st3" d="M142.6,147.1C142.6,147.2,142.6,147.2,142.6,147.1c0,0.1-0.1,0.1-0.1,0.2s-0.1,0-0.2,0c-0.1,0-0.2,0-0.3,0
		c-0.1,0-0.2,0-0.3,0c-0.1,0-0.1,0-0.2,0s-0.1,0-0.1-0.1c0,0,0-0.1,0-0.1v-8.3c0,0,0-0.1,0-0.1s0.1,0,0.1-0.1s0.1,0,0.2,0
		c0.1,0,0.2,0,0.3,0c0.1,0,0.2,0,0.3,0c0.1,0,0.1,0,0.2,0s0.1,0,0.1,0.1s0,0.1,0,0.1V147.1z"/>
	<path class="st3" d="M152.7,142.9c0,0.7-0.1,1.4-0.3,2c-0.2,0.6-0.5,1-0.8,1.4c-0.4,0.4-0.8,0.6-1.3,0.8c-0.5,0.2-1.2,0.3-1.9,0.3
		h-1.8c-0.1,0-0.2,0-0.3-0.1c-0.1-0.1-0.1-0.2-0.1-0.4v-7.7c0-0.2,0-0.3,0.1-0.4c0.1-0.1,0.2-0.1,0.3-0.1h1.9c0.7,0,1.4,0.1,1.9,0.3
		c0.5,0.2,0.9,0.5,1.3,0.8s0.6,0.8,0.8,1.3C152.6,141.7,152.7,142.2,152.7,142.9z M151.5,142.9c0-0.5-0.1-0.9-0.2-1.3
		s-0.3-0.7-0.5-1c-0.2-0.3-0.6-0.5-0.9-0.7s-0.9-0.2-1.5-0.2h-1.2v6.7h1.2c0.6,0,1-0.1,1.4-0.2c0.4-0.1,0.7-0.3,0.9-0.6
		c0.3-0.3,0.4-0.6,0.6-1.1C151.4,144,151.5,143.5,151.5,142.9z"/>
	<path class="st3" d="M165.2,139.2c0,0.1,0,0.2,0,0.2c0,0.1,0,0.1,0,0.1c0,0,0,0.1-0.1,0.1c0,0-0.1,0-0.1,0h-2.4v7.5
		c0,0,0,0.1,0,0.1c0,0,0,0-0.1,0.1c0,0-0.1,0-0.2,0c-0.1,0-0.2,0-0.3,0c-0.1,0-0.2,0-0.3,0c-0.1,0-0.1,0-0.2,0c0,0-0.1,0-0.1-0.1
		c0,0,0-0.1,0-0.1v-7.5h-2.4c0,0-0.1,0-0.1,0c0,0-0.1,0-0.1-0.1c0,0,0-0.1,0-0.1c0-0.1,0-0.1,0-0.2s0-0.2,0-0.2c0-0.1,0-0.1,0-0.2
		s0-0.1,0.1-0.1c0,0,0.1,0,0.1,0h6c0,0,0.1,0,0.1,0c0,0,0.1,0,0.1,0.1s0,0.1,0,0.2S165.2,139.1,165.2,139.2z"/>
	<path class="st3" d="M174.3,142.9c0,0.7-0.1,1.3-0.2,1.9s-0.4,1-0.7,1.4s-0.7,0.7-1.2,0.9c-0.5,0.2-1.1,0.3-1.7,0.3
		c-0.6,0-1.2-0.1-1.7-0.3c-0.5-0.2-0.9-0.5-1.2-0.8c-0.3-0.4-0.5-0.8-0.7-1.4c-0.2-0.5-0.2-1.2-0.2-1.9c0-0.7,0.1-1.3,0.2-1.8
		c0.2-0.6,0.4-1,0.7-1.4c0.3-0.4,0.7-0.7,1.2-0.9c0.5-0.2,1.1-0.3,1.7-0.3c0.6,0,1.2,0.1,1.7,0.3c0.5,0.2,0.9,0.5,1.2,0.8
		c0.3,0.4,0.5,0.8,0.7,1.4C174.3,141.6,174.3,142.2,174.3,142.9z M173.1,143c0-0.5,0-0.9-0.1-1.4c-0.1-0.4-0.2-0.8-0.4-1.1
		c-0.2-0.3-0.5-0.5-0.8-0.7s-0.8-0.3-1.2-0.3s-0.9,0.1-1.2,0.3c-0.3,0.2-0.6,0.4-0.8,0.7c-0.2,0.3-0.4,0.7-0.5,1.1
		c-0.1,0.4-0.1,0.8-0.1,1.3c0,0.5,0,1,0.1,1.4c0.1,0.4,0.2,0.8,0.4,1.1c0.2,0.3,0.5,0.5,0.8,0.7c0.3,0.2,0.8,0.3,1.3,0.3
		c0.5,0,0.9-0.1,1.3-0.3c0.3-0.2,0.6-0.4,0.8-0.8c0.2-0.3,0.4-0.7,0.4-1.1C173.1,143.9,173.1,143.5,173.1,143z"/>
	<path class="st3" d="M183.8,139.9c0,0.1,0,0.2,0,0.2c0,0.1,0,0.1,0,0.2s0,0.1-0.1,0.1c0,0-0.1,0-0.1,0c-0.1,0-0.1,0-0.3-0.1
		c-0.1-0.1-0.3-0.2-0.5-0.3s-0.5-0.2-0.7-0.3s-0.6-0.1-1-0.1c-0.5,0-0.9,0.1-1.3,0.3s-0.7,0.4-1,0.7c-0.3,0.3-0.5,0.7-0.6,1.1
		c-0.1,0.4-0.2,0.9-0.2,1.4c0,0.5,0.1,1,0.2,1.5c0.2,0.4,0.4,0.8,0.6,1.1c0.3,0.3,0.6,0.5,1,0.7c0.4,0.2,0.8,0.2,1.2,0.2
		c0.3,0,0.5,0,0.8-0.1c0.3-0.1,0.5-0.2,0.8-0.3v-2.5h-2c-0.1,0-0.1,0-0.2-0.1c0-0.1-0.1-0.2-0.1-0.4c0-0.1,0-0.2,0-0.2
		c0-0.1,0-0.1,0-0.1c0,0,0-0.1,0.1-0.1c0,0,0.1,0,0.1,0h2.7c0,0,0.1,0,0.1,0c0,0,0.1,0,0.1,0.1c0,0,0.1,0.1,0.1,0.1
		c0,0.1,0,0.1,0,0.2v3.3c0,0.1,0,0.2-0.1,0.3c0,0.1-0.1,0.2-0.3,0.2s-0.3,0.1-0.5,0.2c-0.2,0.1-0.4,0.1-0.6,0.2
		c-0.2,0.1-0.4,0.1-0.7,0.1c-0.2,0-0.4,0-0.7,0c-0.7,0-1.3-0.1-1.8-0.3c-0.5-0.2-1-0.5-1.3-0.9c-0.4-0.4-0.6-0.8-0.8-1.4
		c-0.2-0.5-0.3-1.1-0.3-1.8c0-0.7,0.1-1.3,0.3-1.9c0.2-0.6,0.5-1,0.9-1.4c0.4-0.4,0.8-0.7,1.3-0.9s1.1-0.3,1.7-0.3
		c0.3,0,0.6,0,0.9,0.1c0.3,0.1,0.5,0.1,0.8,0.2c0.2,0.1,0.4,0.2,0.6,0.3s0.3,0.2,0.3,0.2c0.1,0.1,0.1,0.1,0.1,0.2
		S183.8,139.7,183.8,139.9z"/>
	<path class="st3" d="M191.8,146.8c0,0.1,0,0.1,0,0.2c0,0.1,0,0.1,0,0.1c0,0,0,0.1-0.1,0.1s-0.1,0-0.1,0h-4.1c-0.1,0-0.2,0-0.3-0.1
		c-0.1-0.1-0.1-0.2-0.1-0.4v-7.7c0-0.2,0-0.3,0.1-0.4c0.1-0.1,0.2-0.1,0.3-0.1h4.1c0,0,0.1,0,0.1,0c0,0,0.1,0,0.1,0.1s0,0.1,0,0.1
		c0,0.1,0,0.1,0,0.2c0,0.1,0,0.2,0,0.2c0,0.1,0,0.1,0,0.1c0,0,0,0.1-0.1,0.1c0,0-0.1,0-0.1,0h-3.4v2.7h2.9c0,0,0.1,0,0.1,0
		s0.1,0,0.1,0.1c0,0,0,0.1,0,0.1c0,0.1,0,0.1,0,0.2c0,0.1,0,0.1,0,0.2c0,0.1,0,0.1,0,0.1c0,0,0,0.1-0.1,0.1s-0.1,0-0.1,0h-2.9v3.1
		h3.4c0,0,0.1,0,0.1,0c0,0,0.1,0,0.1,0.1c0,0,0,0.1,0,0.1C191.8,146.7,191.8,146.8,191.8,146.8z"/>
	<path class="st3" d="M200.2,139.2c0,0.1,0,0.2,0,0.2c0,0.1,0,0.1,0,0.1c0,0,0,0.1-0.1,0.1s-0.1,0-0.1,0h-2.4v7.5c0,0,0,0.1,0,0.1
		c0,0,0,0-0.1,0.1s-0.1,0-0.2,0c-0.1,0-0.2,0-0.3,0c-0.1,0-0.2,0-0.3,0c-0.1,0-0.1,0-0.2,0s-0.1,0-0.1-0.1c0,0,0-0.1,0-0.1v-7.5H194
		c0,0-0.1,0-0.1,0s-0.1,0-0.1-0.1c0,0,0-0.1,0-0.1c0-0.1,0-0.1,0-0.2s0-0.2,0-0.2c0-0.1,0-0.1,0-0.2s0-0.1,0.1-0.1c0,0,0.1,0,0.1,0
		h6c0,0,0.1,0,0.1,0c0,0,0.1,0,0.1,0.1c0,0,0,0.1,0,0.2C200.2,139,200.2,139.1,200.2,139.2z"/>
	<path class="st3" d="M208.8,147.1C208.8,147.2,208.7,147.2,208.8,147.1c0,0.1-0.1,0.1-0.1,0.2s-0.1,0-0.2,0c-0.1,0-0.2,0-0.3,0
		c-0.1,0-0.2,0-0.3,0c-0.1,0-0.1,0-0.2,0c0,0-0.1,0-0.1-0.1c0,0,0-0.1,0-0.1v-3.8h-3.9v3.8c0,0,0,0.1,0,0.1c0,0,0,0-0.1,0.1
		c0,0-0.1,0-0.2,0c-0.1,0-0.2,0-0.3,0c-0.1,0-0.2,0-0.3,0c-0.1,0-0.1,0-0.2,0c0,0-0.1,0-0.1-0.1c0,0,0-0.1,0-0.1v-8.3
		c0,0,0-0.1,0-0.1s0,0,0.1-0.1c0,0,0.1,0,0.2,0c0.1,0,0.2,0,0.3,0c0.1,0,0.2,0,0.3,0c0.1,0,0.1,0,0.2,0c0,0,0.1,0,0.1,0.1
		s0,0.1,0,0.1v3.4h3.9v-3.4c0,0,0-0.1,0-0.1s0,0,0.1-0.1c0,0,0.1,0,0.2,0c0.1,0,0.2,0,0.3,0c0.1,0,0.2,0,0.3,0c0.1,0,0.1,0,0.2,0
		s0.1,0,0.1,0.1s0,0.1,0,0.1V147.1z"/>
	<path class="st3" d="M217,146.8c0,0.1,0,0.1,0,0.2c0,0.1,0,0.1,0,0.1c0,0,0,0.1-0.1,0.1c0,0-0.1,0-0.1,0h-4.1c-0.1,0-0.2,0-0.3-0.1
		c-0.1-0.1-0.1-0.2-0.1-0.4v-7.7c0-0.2,0-0.3,0.1-0.4c0.1-0.1,0.2-0.1,0.3-0.1h4.1c0,0,0.1,0,0.1,0c0,0,0.1,0,0.1,0.1s0,0.1,0,0.1
		c0,0.1,0,0.1,0,0.2c0,0.1,0,0.2,0,0.2c0,0.1,0,0.1,0,0.1c0,0,0,0.1-0.1,0.1s-0.1,0-0.1,0h-3.4v2.7h2.9c0,0,0.1,0,0.1,0
		s0.1,0,0.1,0.1c0,0,0,0.1,0,0.1c0,0.1,0,0.1,0,0.2c0,0.1,0,0.1,0,0.2c0,0.1,0,0.1,0,0.1c0,0,0,0.1-0.1,0.1s-0.1,0-0.1,0h-2.9v3.1
		h3.4c0,0,0.1,0,0.1,0c0,0,0.1,0,0.1,0.1c0,0,0,0.1,0,0.1C217,146.7,217,146.8,217,146.8z"/>
	<path class="st3" d="M225.7,147.1C225.7,147.2,225.7,147.2,225.7,147.1c0,0.1-0.1,0.1-0.1,0.2s-0.1,0-0.2,0c-0.1,0-0.2,0-0.3,0
		c-0.1,0-0.2,0-0.3,0c-0.1,0-0.1,0-0.2,0c0,0-0.1,0-0.1-0.1c0,0,0-0.1-0.1-0.1l-0.8-2c-0.1-0.2-0.2-0.4-0.3-0.6
		c-0.1-0.2-0.2-0.4-0.4-0.5c-0.1-0.1-0.3-0.2-0.5-0.3c-0.2-0.1-0.4-0.1-0.7-0.1h-0.8v3.7c0,0,0,0.1,0,0.1c0,0-0.1,0-0.1,0.1
		c0,0-0.1,0-0.2,0c-0.1,0-0.2,0-0.3,0s-0.2,0-0.3,0c-0.1,0-0.1,0-0.2,0c0,0-0.1,0-0.1-0.1c0,0,0-0.1,0-0.1v-8c0-0.2,0-0.3,0.1-0.4
		c0.1-0.1,0.2-0.1,0.3-0.1h1.8c0.2,0,0.4,0,0.5,0c0.1,0,0.3,0,0.4,0c0.3,0.1,0.6,0.1,0.9,0.3c0.3,0.1,0.5,0.3,0.6,0.5
		c0.2,0.2,0.3,0.4,0.4,0.7s0.1,0.5,0.1,0.8c0,0.3,0,0.5-0.1,0.8c-0.1,0.2-0.2,0.4-0.3,0.6s-0.3,0.3-0.5,0.5
		c-0.2,0.1-0.4,0.2-0.7,0.3c0.1,0.1,0.3,0.1,0.4,0.2c0.1,0.1,0.2,0.2,0.3,0.3c0.1,0.1,0.2,0.3,0.3,0.5c0.1,0.2,0.2,0.4,0.3,0.6
		l0.8,1.9c0.1,0.2,0.1,0.3,0.1,0.3S225.7,147.1,225.7,147.1z M224,141.1c0-0.3-0.1-0.6-0.2-0.9c-0.2-0.2-0.4-0.4-0.8-0.5
		c-0.1,0-0.2-0.1-0.4-0.1c-0.1,0-0.3,0-0.5,0h-1v2.9h1.1c0.3,0,0.6,0,0.8-0.1c0.2-0.1,0.4-0.2,0.5-0.3s0.3-0.3,0.3-0.5
		C223.9,141.5,224,141.3,224,141.1z"/>
</g>
</svg>
