<svg xmlns="http://www.w3.org/2000/svg" width="17.842" height="18.354" viewBox="0 0 17.842 18.354">
  <g id="like" transform="translate(-6.675)">
    <path id="Path_10622" data-name="Path 10622" d="M23.981,5.876A2.28,2.28,0,0,1,24.515,7.4a2.341,2.341,0,0,1-.5,1.32,2.051,2.051,0,0,1-.487,2.36,4.238,4.238,0,0,1-3.082.737,12.045,12.045,0,0,1-1.888-.242h0c-.192-.035-.4-.077-.6-.123a6.7,6.7,0,0,0,.48,2.23c.537,1.635.507,2.886-.1,3.723a2.44,2.44,0,0,1-1.954.948.964.964,0,0,1-.741-.338,2.582,2.582,0,0,1-.322-1.831c-.507-1.359-1.927-4.69-3.128-5.615a.411.411,0,0,1-.061-.054,4.123,4.123,0,0,1-.752-1.128,1.584,1.584,0,0,1-.76.192H8.272a1.6,1.6,0,0,1-1.6-1.6V1.746a1.6,1.6,0,0,1,1.6-1.6h2.341a1.593,1.593,0,0,1,.921.292l.9-.107a38.644,38.644,0,0,1,5.116-.28C18.009.019,18.439,0,18.838,0a8.612,8.612,0,0,1,1.785.161,3.338,3.338,0,0,1,2.383,1.482,2.349,2.349,0,0,1,.261,1.47A2.448,2.448,0,0,1,24.138,5.1,2.593,2.593,0,0,1,23.981,5.876ZM8.272,1.186a.561.561,0,0,0-.56.56V7.987a.561.561,0,0,0,.56.56h2.341a.561.561,0,0,0,.56-.56V1.75a.561.561,0,0,0-.56-.56H8.272ZM23,6.325a.516.516,0,0,1-.069-.626,1.6,1.6,0,0,0,.177-.641,1.536,1.536,0,0,0-.722-1.328.523.523,0,0,1-.177-.591,1.355,1.355,0,0,0-.1-.99,2.4,2.4,0,0,0-1.7-.975,10.111,10.111,0,0,0-2.8-.084h-.054a37.885,37.885,0,0,0-4.99.273h0l-.388.046a1.626,1.626,0,0,1,.035.338V7.987a1.624,1.624,0,0,1-.073.476A3.208,3.208,0,0,0,12.85,9.78c1.723,1.366,3.408,5.976,3.481,6.176a.486.486,0,0,1,.023.257,2.4,2.4,0,0,0,.05,1.113,1.377,1.377,0,0,0,1.082-.518c.391-.541.376-1.508-.046-2.79-.645-1.954-.7-2.982-.188-3.435a.837.837,0,0,1,.837-.15c.234.054.457.1.668.134l.05.012c1.178.257,3.289.415,4.022-.253a1.1,1.1,0,0,0,.13-1.4.513.513,0,0,1,.092-.668,1.454,1.454,0,0,0,.426-.894A1.425,1.425,0,0,0,23,6.325Z" transform="translate(0 0)" fill="#f00"/>
  </g>
</svg>
