<svg xmlns="http://www.w3.org/2000/svg" width="74.017" height="74.001" viewBox="0 0 74.017 74.001">
  <g id="_2104-25_Converted_" data-name="2104-25 [Converted]" transform="translate(-276.1 -176.1)">
    <path id="XMLID_1028_" d="M282.563,234.018c-5.851-13.686-4.2-36.248,12.331-47.207a32.31,32.31,0,0,1,40.612,3.455,24.163,24.163,0,0,1-9.9,3.322c-15.653,2.116-25.438,14.777-28.711,23.455,0,0,2.314,2.2,7.917-5.405,4.364-5.934,11.091-8.529,16.694-9.7-.926,1.289-2.5,3.438-4.132,5.521-2.562,3.289-1.388,6.116-2.992,7.7,0,0,2.6,1.686,4.661-1.967s3.62-6,8.926-7.372A19.817,19.817,0,0,0,340.6,194.067a24.443,24.443,0,0,0,1.074-4.5,37.014,37.014,0,0,0-59.108,44.447Z" fill="#4e8bfe"/>
    <path id="XMLID_1029_" d="M386.541,274.1c0,.017-.017.017,0,.017,5.736,13.653,3.984,35.967-12.4,47.075a32.175,32.175,0,0,1-40.628-3.455,23.918,23.918,0,0,1,9.917-3.322c15.653-2.116,25.438-14.777,28.711-23.455,0,0-2.314-2.2-7.917,5.405-4.364,5.934-11.091,8.529-16.694,9.7.926-1.289,2.5-3.438,4.132-5.521,2.562-3.289,1.388-6.116,2.992-7.7,0,0-2.6-1.686-4.661,1.967s-3.62,6-8.926,7.372a19.7,19.7,0,0,0-12.628,11.752,24.5,24.5,0,0,0-1.041,4.529A37.006,37.006,0,0,0,386.541,274.1Z" transform="translate(-42.821 -81.802)" fill="#2a2585"/>
  </g>
</svg>
